<?xml version="1.0" encoding="utf-8"?>
<!-- Generator: Adobe Illustrator 24.3.0, SVG Export Plug-In . SVG Version: 6.00 Build 0)  -->
<svg version="1.1" id="Ebene_1" xmlns="http://www.w3.org/2000/svg" x="0px"
	 y="0px"
	 viewBox="0 0 311.81 70.87" style="enable-background:new 0 0 311.81 70.87;" xml:space="preserve">
<style type="text/css">
	.st0 {
        fill: #194375;
    }

    .st1 {
        fill: #0F74A3;
    }

    .st2 {
        fill: #FFFFFF;
    }
</style>
    <g>
	<path class="st0" d="M305.09,64.98c-0.89,0.48-1.89,0.71-3,0.71c-1.05,0-1.98-0.23-2.8-0.68c-0.82-0.45-1.45-1.08-1.91-1.89
		c-0.46-0.81-0.69-1.73-0.69-2.76c0-1.05,0.23-1.98,0.69-2.78c0.46-0.81,1.1-1.44,1.93-1.88c0.82-0.44,1.77-0.67,2.83-0.67
		c1.68,0,3.12,0.63,4.31,1.88l2.47-2.28c-0.81-0.94-1.81-1.65-3-2.14c-1.19-0.49-2.51-0.74-3.97-0.74c-1.74,0-3.31,0.37-4.71,1.11
		c-1.4,0.74-2.49,1.76-3.27,3.07c-0.78,1.31-1.18,2.79-1.18,4.44c0,1.65,0.39,3.13,1.18,4.44c0.79,1.31,1.87,2.33,3.25,3.07
		c1.38,0.74,2.93,1.11,4.66,1.11c1.2,0,2.4-0.18,3.59-0.55c1.19-0.37,2.24-0.89,3.14-1.57v-6.76h-3.52V64.98z M285.61,52.04v10.11
		l-8.28-10.11h-3.19v16.65h3.8V58.59l8.3,10.11h3.16V52.04H285.61z M265.87,68.69h3.85V52.04h-3.85V68.69z M254.14,68.69H258V55.18
		h5.33v-3.14h-14.51v3.14h5.33V68.69z M237.4,68.69h12.2v-3.14h-8.35V52.04h-3.85V68.69z M225.58,68.98c2.38,0,4.23-0.66,5.55-1.97
		c1.32-1.32,1.99-3.19,1.99-5.64v-9.32h-3.81v9.18c0,1.54-0.32,2.67-0.95,3.39c-0.63,0.72-1.55,1.08-2.76,1.08
		c-2.47,0-3.71-1.49-3.71-4.47v-9.18h-3.85v9.32c0,2.44,0.66,4.32,1.99,5.64C221.35,68.32,223.2,68.98,225.58,68.98 M208,68.98
		c1.52,0,2.81-0.23,3.88-0.69c1.06-0.46,1.86-1.08,2.39-1.87c0.53-0.78,0.8-1.65,0.8-2.6c0-1.11-0.29-1.99-0.87-2.64
		c-0.58-0.65-1.27-1.12-2.08-1.43c-0.81-0.3-1.85-0.6-3.12-0.9c-1.22-0.27-2.13-0.54-2.72-0.82c-0.6-0.28-0.89-0.7-0.89-1.27
		s0.26-1.03,0.77-1.38c0.51-0.35,1.31-0.52,2.39-0.52c1.54,0,3.08,0.44,4.61,1.31l1.19-2.93c-0.76-0.48-1.65-0.84-2.66-1.09
		c-1.01-0.25-2.05-0.38-3.12-0.38c-1.52,0-2.81,0.23-3.87,0.69c-1.05,0.46-1.84,1.08-2.37,1.87c-0.52,0.78-0.79,1.66-0.79,2.63
		c0,1.11,0.29,2,0.87,2.66s1.27,1.15,2.08,1.45c0.81,0.3,1.85,0.6,3.12,0.9c0.82,0.19,1.48,0.36,1.96,0.52
		c0.48,0.16,0.88,0.37,1.19,0.63c0.31,0.26,0.46,0.59,0.46,0.99c0,0.54-0.26,0.97-0.79,1.3c-0.52,0.33-1.33,0.49-2.43,0.49
		c-0.98,0-1.97-0.16-2.95-0.48c-0.98-0.32-1.83-0.74-2.54-1.26l-1.31,2.9c0.75,0.57,1.73,1.04,2.96,1.39
		C205.41,68.8,206.68,68.98,208,68.98 M194.3,52.04v10.11l-8.28-10.11h-3.19v16.65h3.81V58.59l8.3,10.11h3.16V52.04H194.3z
		 M170.35,65.7c-0.98,0-1.87-0.23-2.66-0.68c-0.79-0.45-1.42-1.08-1.87-1.89c-0.45-0.81-0.68-1.73-0.68-2.76
		c0-1.03,0.23-1.95,0.68-2.76c0.45-0.81,1.07-1.44,1.87-1.89c0.79-0.45,1.68-0.68,2.66-0.68c0.98,0,1.87,0.23,2.66,0.68
		c0.79,0.45,1.42,1.08,1.87,1.89c0.45,0.81,0.68,1.73,0.68,2.76c0,1.03-0.23,1.95-0.68,2.76c-0.45,0.81-1.07,1.44-1.87,1.89
		C172.22,65.47,171.33,65.7,170.35,65.7 M170.35,68.98c1.73,0,3.28-0.37,4.66-1.12c1.38-0.75,2.46-1.77,3.26-3.08
		c0.79-1.31,1.19-2.78,1.19-4.41c0-1.63-0.4-3.1-1.19-4.41c-0.79-1.31-1.88-2.33-3.26-3.08c-1.38-0.74-2.93-1.12-4.66-1.12
		c-1.73,0-3.29,0.37-4.67,1.12c-1.39,0.75-2.47,1.77-3.26,3.08c-0.78,1.31-1.18,2.78-1.18,4.41c0,1.63,0.39,3.1,1.18,4.41
		c0.79,1.31,1.87,2.33,3.26,3.08C167.06,68.61,168.62,68.98,170.35,68.98 M152.7,68.98c1.44,0,2.75-0.25,3.92-0.76
		c1.17-0.51,2.16-1.24,2.95-2.21l-2.47-2.28c-1.13,1.32-2.52,1.98-4.19,1.98c-1.03,0-1.95-0.23-2.76-0.68
		c-0.81-0.45-1.44-1.08-1.89-1.89c-0.45-0.81-0.68-1.73-0.68-2.76c0-1.03,0.23-1.95,0.68-2.76c0.45-0.81,1.08-1.44,1.89-1.89
		c0.81-0.45,1.73-0.68,2.76-0.68c1.67,0,3.06,0.65,4.19,1.95l2.47-2.28c-0.79-0.95-1.77-1.68-2.94-2.19
		c-1.17-0.51-2.47-0.76-3.91-0.76c-1.71,0-3.25,0.37-4.63,1.11c-1.37,0.74-2.45,1.76-3.23,3.07c-0.79,1.31-1.18,2.79-1.18,4.44
		c0,1.65,0.39,3.13,1.18,4.44c0.79,1.31,1.86,2.33,3.23,3.07C149.47,68.61,151,68.98,152.7,68.98"/>
        <path class="st0" d="M292.22,40.68v-3.85h7.73v-3h-7.73v-3.61h8.75v-3.09h-12.58v16.65h12.89v-3.09H292.22z M280.97,33.17
		c0,0.92-0.3,1.63-0.9,2.14c-0.6,0.51-1.48,0.76-2.64,0.76h-3.14v-5.8h3.14c1.16,0,2.04,0.25,2.64,0.75
		C280.67,31.51,280.97,32.23,280.97,33.17 M285.18,43.78l-3.74-5.35c1.09-0.48,1.94-1.16,2.53-2.06c0.6-0.9,0.89-1.96,0.89-3.2
		c0-1.24-0.29-2.31-0.88-3.21c-0.59-0.9-1.42-1.6-2.51-2.09c-1.09-0.49-2.37-0.74-3.84-0.74h-7.21v16.65h3.85v-4.64h3.35h0.19
		l3.21,4.64H285.18z M256.21,37.28l2.64-6.37l2.64,6.37H256.21z M264.18,43.78h4.04l-7.45-16.65h-3.81l-7.42,16.65h3.95l1.47-3.57
		h7.73L264.18,43.78z M245.98,27.13l-3.88,11.8l-3.81-11.8h-3.57l-3.93,11.7l-3.76-11.7h-4l5.47,16.65h4.11l3.78-11.28l3.66,11.28
		h4.14l5.45-16.65H245.98z M213.09,43.78h3.85V30.26h5.33v-3.14h-14.51v3.14h5.33V43.78z M206.43,30.22v-3.09h-12.58v16.65h3.85
		v-6.07h7.71v-3.09h-7.71v-4.4H206.43z M181.36,40.78c-0.98,0-1.87-0.23-2.66-0.68s-1.42-1.08-1.87-1.89
		c-0.45-0.81-0.68-1.73-0.68-2.76c0-1.03,0.23-1.95,0.68-2.76c0.45-0.81,1.07-1.44,1.87-1.89c0.79-0.45,1.68-0.68,2.66-0.68
		s1.87,0.23,2.66,0.68c0.79,0.45,1.41,1.08,1.87,1.89c0.45,0.81,0.68,1.73,0.68,2.76c0,1.03-0.23,1.95-0.68,2.76
		c-0.45,0.81-1.07,1.44-1.87,1.89S182.34,40.78,181.36,40.78 M181.36,44.06c1.73,0,3.28-0.37,4.66-1.12
		c1.38-0.74,2.47-1.77,3.26-3.08c0.79-1.31,1.19-2.78,1.19-4.41s-0.4-3.1-1.19-4.41c-0.79-1.31-1.88-2.33-3.26-3.08
		c-1.38-0.74-2.93-1.12-4.66-1.12s-3.29,0.37-4.67,1.12c-1.39,0.75-2.47,1.77-3.26,3.08c-0.79,1.31-1.18,2.78-1.18,4.41
		s0.39,3.1,1.18,4.41c0.79,1.31,1.87,2.34,3.26,3.08C178.07,43.69,179.63,44.06,181.36,44.06 M163.12,44.06
		c1.52,0,2.81-0.23,3.88-0.69c1.06-0.46,1.86-1.08,2.39-1.87c0.53-0.78,0.8-1.65,0.8-2.6c0-1.11-0.29-1.99-0.87-2.64
		c-0.58-0.65-1.27-1.12-2.08-1.43c-0.81-0.3-1.85-0.6-3.12-0.9c-1.22-0.27-2.13-0.54-2.72-0.82c-0.59-0.28-0.89-0.7-0.89-1.27
		c0-0.57,0.26-1.03,0.77-1.38c0.51-0.35,1.31-0.52,2.39-0.52c1.54,0,3.08,0.44,4.61,1.31l1.19-2.93c-0.76-0.48-1.65-0.84-2.66-1.09
		c-1.01-0.25-2.05-0.38-3.12-0.38c-1.52,0-2.81,0.23-3.87,0.69c-1.06,0.46-1.84,1.08-2.37,1.87c-0.52,0.78-0.79,1.66-0.79,2.63
		c0,1.11,0.29,2,0.87,2.66c0.58,0.67,1.27,1.15,2.08,1.45c0.81,0.3,1.85,0.6,3.11,0.9c0.82,0.19,1.48,0.37,1.96,0.52
		c0.48,0.16,0.88,0.37,1.19,0.63c0.31,0.26,0.46,0.59,0.46,0.99c0,0.54-0.26,0.97-0.78,1.3c-0.52,0.33-1.33,0.49-2.43,0.49
		c-0.98,0-1.97-0.16-2.95-0.48c-0.98-0.32-1.83-0.74-2.54-1.26l-1.31,2.9c0.74,0.57,1.73,1.04,2.96,1.39S161.8,44.06,163.12,44.06"
        />
        <path class="st0" d="M258.07,5.3V2.21h-12.58v16.65h3.85v-6.06h7.71V9.7h-7.71V5.3H258.07z M233,15.86c-0.98,0-1.87-0.23-2.66-0.68
		s-1.42-1.08-1.87-1.89c-0.45-0.81-0.68-1.73-0.68-2.76c0-1.03,0.23-1.95,0.68-2.76c0.45-0.81,1.07-1.44,1.87-1.89
		S232.01,5.2,233,5.2s1.87,0.23,2.66,0.68s1.42,1.08,1.87,1.89c0.45,0.81,0.68,1.73,0.68,2.76c0,1.03-0.23,1.95-0.68,2.76
		c-0.45,0.81-1.07,1.44-1.87,1.89S233.98,15.86,233,15.86 M233,19.14c1.73,0,3.28-0.37,4.66-1.12c1.38-0.74,2.47-1.77,3.26-3.08
		c0.79-1.31,1.19-2.78,1.19-4.41c0-1.63-0.4-3.1-1.19-4.41c-0.79-1.31-1.88-2.33-3.26-3.08c-1.38-0.75-2.93-1.12-4.66-1.12
		c-1.73,0-3.29,0.37-4.67,1.12c-1.39,0.75-2.47,1.77-3.26,3.08c-0.79,1.31-1.18,2.78-1.18,4.41c0,1.63,0.39,3.1,1.18,4.41
		c0.79,1.31,1.87,2.34,3.26,3.08C229.71,18.77,231.27,19.14,233,19.14 M216.66,2.21v6.56h-7.56V2.21h-3.85v16.65h3.85v-6.83h7.56
		v6.83h3.85V2.21H216.66z M195.3,19.14c1.44,0,2.75-0.25,3.92-0.76c1.17-0.51,2.16-1.24,2.95-2.21l-2.47-2.28
		c-1.13,1.32-2.52,1.97-4.19,1.97c-1.03,0-1.95-0.23-2.76-0.68c-0.81-0.45-1.44-1.08-1.89-1.89c-0.45-0.81-0.68-1.73-0.68-2.76
		c0-1.03,0.23-1.95,0.68-2.76c0.45-0.81,1.08-1.44,1.89-1.89c0.81-0.45,1.73-0.68,2.76-0.68c1.66,0,3.06,0.65,4.19,1.95l2.47-2.28
		c-0.79-0.95-1.77-1.68-2.94-2.19c-1.17-0.51-2.47-0.76-3.91-0.76c-1.71,0-3.25,0.37-4.63,1.11c-1.37,0.74-2.45,1.76-3.24,3.07
		c-0.79,1.31-1.18,2.79-1.18,4.44c0,1.65,0.39,3.13,1.18,4.44c0.78,1.31,1.86,2.33,3.24,3.07C192.07,18.77,193.6,19.14,195.3,19.14
		 M177.15,19.14c1.52,0,2.81-0.23,3.88-0.69c1.06-0.46,1.86-1.08,2.39-1.87c0.53-0.78,0.8-1.65,0.8-2.6c0-1.11-0.29-1.99-0.87-2.64
		c-0.58-0.65-1.27-1.13-2.08-1.43c-0.81-0.3-1.85-0.6-3.12-0.9c-1.22-0.27-2.13-0.54-2.72-0.82c-0.59-0.28-0.89-0.7-0.89-1.27
		c0-0.57,0.26-1.03,0.77-1.38s1.31-0.52,2.39-0.52c1.54,0,3.08,0.44,4.61,1.31l1.19-2.93c-0.76-0.48-1.65-0.84-2.66-1.09
		c-1.01-0.25-2.05-0.38-3.12-0.38c-1.52,0-2.81,0.23-3.87,0.69c-1.05,0.46-1.84,1.08-2.37,1.87c-0.52,0.78-0.79,1.66-0.79,2.63
		c0,1.11,0.29,2,0.87,2.66c0.58,0.67,1.27,1.15,2.08,1.45c0.81,0.3,1.85,0.6,3.12,0.9c0.82,0.19,1.48,0.37,1.96,0.52
		c0.48,0.16,0.88,0.37,1.19,0.63c0.31,0.26,0.46,0.59,0.46,0.99c0,0.54-0.26,0.97-0.78,1.3c-0.52,0.33-1.33,0.49-2.43,0.49
		c-0.98,0-1.97-0.16-2.95-0.47c-0.98-0.32-1.83-0.74-2.54-1.26l-1.31,2.9c0.74,0.57,1.73,1.03,2.96,1.39
		C174.56,18.96,175.83,19.14,177.15,19.14 M163.4,18.86h3.85V2.21h-3.85V18.86z M153.06,15.96h-4.5v-4.11h4.5
		c2.05,0,3.07,0.69,3.07,2.07c0,0.7-0.26,1.21-0.77,1.55C154.84,15.79,154.07,15.96,153.06,15.96 M152.39,5.11
		c0.95,0,1.67,0.16,2.16,0.49c0.49,0.33,0.74,0.81,0.74,1.46c0,0.65-0.25,1.14-0.74,1.48c-0.49,0.33-1.21,0.5-2.16,0.5h-3.83V5.11
		H152.39z M156.96,10.2c0.7-0.36,1.24-0.86,1.63-1.5c0.39-0.64,0.58-1.36,0.58-2.17c0-1.33-0.54-2.39-1.63-3.16
		c-1.09-0.78-2.65-1.17-4.67-1.17h-8.14v16.65h8.61c2.17,0,3.82-0.39,4.96-1.18c1.13-0.78,1.7-1.91,1.7-3.37
		c0-1.03-0.27-1.9-0.81-2.6C158.65,11,157.91,10.5,156.96,10.2"/>
        <path class="st1" d="M58.39,60.99c-9.71-6.9-14.08-16.28-13.24-28.18c-1.21,1.22-2.38,2.41-3.55,3.59
		c-0.12,0.12-0.24,0.25-0.37,0.37c-0.52,0.47-1.12,0.48-1.57,0.02c-0.4-0.42-0.38-1.03,0.1-1.51c1.55-1.58,3.12-3.16,4.67-4.74
		c0.55-0.56,1.09-1.13,1.66-1.67c0.61-0.59,1.31-0.5,1.74,0.24c1.51,2.6,3,5.21,4.49,7.82c0.34,0.6,0.19,1.17-0.33,1.48
		c-0.53,0.32-1.14,0.15-1.5-0.45c-0.92-1.58-1.83-3.17-2.74-4.75c-0.08-0.14-0.18-0.27-0.37-0.56c-0.6,4.94,0,9.54,1.82,13.97
		c2.13,5.2,5.57,9.34,10.29,12.49c0.92,0.58,1.89,1.12,1.89,1.12c4.07,2.24,8.44,3.37,13.09,3.36c5.78-0.01,11.04-1.69,15.96-5.1
		c-0.4-0.03-0.6-0.06-0.8-0.07c-1.74-0.06-3.48-0.11-5.22-0.17c-0.81-0.03-1.28-0.44-1.25-1.1c0.02-0.66,0.5-1.03,1.34-1
		c2.9,0.09,5.79,0.18,8.68,0.28c1.05,0.04,1.44,0.6,1.13,1.61c-0.87,2.81-1.75,5.61-2.64,8.41c-0.22,0.68-0.76,0.99-1.34,0.79
		c-0.61-0.2-0.86-0.72-0.65-1.42c0.53-1.75,1.08-3.49,1.64-5.28c-10.08,6.32-20.39,6.88-31.1,1.54
		C60.19,62.08,59.27,61.55,58.39,60.99"/>
        <path class="st1" d="M93.91,13.19c1.34-2.28,0.59-5.21-1.67-6.54c-2.28-1.34-5.21-0.59-6.54,1.68c-1.34,2.28-0.59,5.21,1.68,6.54
		C89.64,16.21,92.57,15.46,93.91,13.19 M85.32,16.08c-2.96-3.59-3.2-7.03-0.68-9.91c2.17-2.47,5.94-3.04,8.76-1.3
		c2.83,1.74,4.03,5.38,2.83,8.39c-1.17,2.96-4.69,5.42-9.05,3.93"/>
        <path class="st1" d="M100.76,36.05c0-2.48-2.01-4.49-4.49-4.49c-1.1,0-2.1,0.41-2.88,1.07l-24.62-14.5c0.12-0.4,0.2-0.81,0.2-1.25
		c0-2.48-2.01-4.49-4.49-4.49c-2.48,0-4.49,2.01-4.49,4.49s2.01,4.49,4.49,4.49c1.24,0,2.36-0.5,3.17-1.31l24.44,14.4
		c-0.19,0.5-0.31,1.03-0.31,1.59c0,2.48,2.01,4.49,4.49,4.49C98.75,40.54,100.76,38.53,100.76,36.05"/>
        <path class="st0" d="M85.22,14.18c-0.6-0.35-1.37-0.15-1.72,0.45L55.5,62.15c-0.35,0.6-0.15,1.37,0.44,1.72l3.59,2.12
		c0.6,0.35,1.37,0.15,1.72-0.45l27.99-47.53c0.35-0.6,0.15-1.37-0.44-1.72L85.22,14.18z"/>
        <path class="st1" d="M94.65,10.67c0,2.74-2.22,4.97-4.97,4.97c-2.74,0-4.97-2.22-4.97-4.97c0-2.74,2.22-4.97,4.97-4.97
		C92.42,5.71,94.65,7.93,94.65,10.67 M96.49,10.67c0-3.76-3.05-6.81-6.81-6.81c-3.76,0-6.81,3.05-6.81,6.81
		c0,3.76,3.05,6.81,6.81,6.81C93.44,17.48,96.49,14.43,96.49,10.67"/>
        <path class="st0" d="M42.69,6c0.26-0.24,0.28-0.65,0.04-0.91L39.67,1.7c-0.24-0.26-0.64-0.28-0.9-0.04L2.75,35.32
		c-0.26,0.24-0.25,0.63,0.01,0.87L38.89,68.3c0.26,0.24,0.67,0.21,0.9-0.06l2.95-3.38c0.23-0.27,0.21-0.68-0.06-0.91L11.31,36.08
		c-0.26-0.24-0.27-0.62-0.01-0.86L42.69,6z"/>
        <path class="st0" d="M107.27,6c-0.26-0.24-0.28-0.65-0.04-0.91l3.06-3.38c0.24-0.26,0.64-0.28,0.9-0.04l36.03,33.66
		c0.26,0.24,0.25,0.63-0.01,0.87L111.07,68.3c-0.26,0.24-0.67,0.21-0.9-0.06l-2.95-3.38c-0.23-0.27-0.21-0.68,0.06-0.91l31.37-27.88
		c0.26-0.24,0.27-0.62,0.01-0.86L107.27,6z"/>
</g>
</svg>
